<?xml version="1.0" standalone="no"?>
<!DOCTYPE svg PUBLIC "-//W3C//DTD SVG 20010904//EN"
 "http://www.w3.org/TR/2001/REC-SVG-20010904/DTD/svg10.dtd">
<svg version="1.0" xmlns="http://www.w3.org/2000/svg" viewBox="0 0 18 18">


    <rect
        x="0"
        y="0"
        width="18"
        height="18"
        fill="rgb(172, 189, 173)"
    />

    <line
        x1="0"
        x2="0"
        y1="0"
        y2="18"
        stroke="rgb(152, 161, 151)"
        stroke-width="2"
    />
    <line
        x1="1"
        x2="18"
        y1="0"
        y2="0"
        stroke="rgb(95, 108, 95)"
        stroke-width="2"
    />

    <rect
        x="1.5"
        y="1.5"
        width="16"
        height="16"
        stroke="rgb(19, 26, 18)"
        stroke-width="1"
        fill="none"
    />

    <line
        x1="2.5"
        x2="2.5"
        y1="2"
        y2="17"
        stroke="rgb(106, 116, 105)"
        stroke-width="1"
    />

        <line
        x1="3"
        x2="17"
        y1="16.5"
        y2="16.5"
        stroke="rgb(53, 59, 52)"
        stroke-width="1"
    />

    <line
        x1="16.5"
        x2="16.5"
        y1="2"
        y2="16"
        stroke="rgb(160, 165, 162)"
        stroke-width="1"
    />

    <line
        x1="3"
        x2="16.1"
        y1="2.5"
        y2="2.5"
        stroke="rgb(171, 181, 172)"
        stroke-width="1"
    />

    <rect
        x="6"
        y="5"
        width="8"
        height="8"
        fill="rgb(19, 26, 18)"
    />

    <line
        x1="5.5"
        y1="5"
        x2="5.5"
        y2="13"
        stroke="rgb(47, 53, 46)"
    />

    <line
        x1="6"
        y1="13.5"
        x2="14"
        y2="13.5"
        stroke="rgb(73, 81, 72)"
    />

    <line
        x1="14.5"
        y1="5"
        x2="14.5"
        y2="13"
        stroke="rgb(159, 171, 159)"
    />

    <line
        x1="6"
        y1="4.5"
        x2="14"
        y2="4.5"
        stroke="rgb(136, 147, 133)"
    />

    <line
        x1="5"
        y1="4.5"
        x2="6"
        y2="4.5"
        stroke="rgb(142, 157, 143)"
    />

    <line
        x1="14"
        y1="4.5"
        x2="15"
        y2="4.5"
        stroke="rgb(167, 188, 171)"
    />

    <line
        x1="14"
        y1="13.5"
        x2="15"
        y2="13.5"
        stroke="rgb(163, 180, 162)"
    />

    <line
        x1="5"
        y1="13.5"
        x2="6"
        y2="13.5"
        stroke="rgb(98, 107, 97)"
    />

    <line
        x1="0"
        x2="1"
        y1="0.5"
        y2="0.5"
        stroke="rgb(164, 173, 163)"
    />

    <line
        x1="2"
        x2="3"
        y1="2.5"
        y2="2.5"
        stroke="rgb(103, 108, 101)"
    />

    <line
        x1="16"
        x2="17"
        y1="16.5"
        y2="16.5"
        stroke="rgb(39, 48, 41)"
    />


    <line
        x1="2"
        x2="3"
        y1="16.5"
        y2="16.5"
        stroke="rgb(30, 36, 29)"
    />

    <line
        x1="16"
        x2="17"
        y1="2.5"
        y2="2.5"
        stroke="rgb(141, 144, 141)"
    />
</svg>
